<?xml version="1.0" ?><!DOCTYPE svg  PUBLIC '-//W3C//DTD SVG 1.1//EN'  'http://www.w3.org/Graphics/SVG/1.1/DTD/svg11.dtd'><svg enable-background="new 0 0 500 500" height="500px" id="Layer_1" version="1.1" viewBox="0 0 500 500" width="500px" xml:space="preserve" xmlns="http://www.w3.org/2000/svg" xmlns:xlink="http://www.w3.org/1999/xlink"><path clip-rule="evenodd" d="M259.086,372.654c0-7.994-1.368-15.624-3.912-22.716h53.156  c-2.449,7.092-3.817,14.722-3.817,22.716c0,37.621,30.521,68.142,68.143,68.142c37.607,0,68.142-30.521,68.142-68.142  c0-37.613-30.534-68.143-68.142-68.143H222.744c-9.99,0-18.17-8.181-18.17-18.172c0-9.988,8.18-18.168,18.17-18.168h156.273  c16.44,0,30.608-9.637,37.059-23.621c2.46-5.269,49.526-112.573,49.526-112.573c1.269-2.912,2.449-5.812,2.449-9.176  c0-9.99-8.181-18.171-18.172-18.171H166.227l-7.632-23.528c-3.54-12.636-13.442-21.898-26.706-21.898H54.662  c-12.536,0-22.713,10.177-22.713,22.713s10.177,22.713,22.713,22.713h47.699c8.083,0,14.897,5.271,17.267,12.449l38.339,195.968  c-20.984,11.543-35.164,33.983-35.164,59.606c0,37.621,30.523,68.142,68.142,68.142  C228.555,440.796,259.086,410.275,259.086,372.654z M213.658,372.654c0,12.536-10.177,22.712-22.714,22.712  c-12.536,0-22.713-10.176-22.713-22.712s10.177-22.716,22.713-22.716C203.481,349.938,213.658,360.118,213.658,372.654z   M395.366,372.654c0,12.536-10.176,22.712-22.711,22.712c-12.537,0-22.717-10.176-22.717-22.712s10.18-22.716,22.717-22.716  C385.19,349.938,395.366,360.118,395.366,372.654z" fill="#010101" fill-rule="evenodd"/></svg>